<svg id="visual" viewBox="0 0 900 600" width="900" height="600" xmlns="http://www.w3.org/2000/svg" xmlns:xlink="http://www.w3.org/1999/xlink" version="1.1"><rect x="0" y="0" width="900" height="600" fill="#ffffff"></rect><defs><linearGradient id="grad1_0" x1="33.3%" y1="0%" x2="100%" y2="100%"><stop offset="20%" stop-color="#71ce67" stop-opacity="1"></stop><stop offset="80%" stop-color="#71ce67" stop-opacity="1"></stop></linearGradient></defs><defs><linearGradient id="grad1_1" x1="33.3%" y1="0%" x2="100%" y2="100%"><stop offset="20%" stop-color="#71ce67" stop-opacity="1"></stop><stop offset="80%" stop-color="#a4df99" stop-opacity="1"></stop></linearGradient></defs><defs><linearGradient id="grad1_2" x1="33.3%" y1="0%" x2="100%" y2="100%"><stop offset="20%" stop-color="#d3efcc" stop-opacity="1"></stop><stop offset="80%" stop-color="#a4df99" stop-opacity="1"></stop></linearGradient></defs><defs><linearGradient id="grad1_3" x1="33.3%" y1="0%" x2="100%" y2="100%"><stop offset="20%" stop-color="#d3efcc" stop-opacity="1"></stop><stop offset="80%" stop-color="#ffffff" stop-opacity="1"></stop></linearGradient></defs><defs><linearGradient id="grad2_0" x1="0%" y1="0%" x2="66.7%" y2="100%"><stop offset="20%" stop-color="#71ce67" stop-opacity="1"></stop><stop offset="80%" stop-color="#71ce67" stop-opacity="1"></stop></linearGradient></defs><defs><linearGradient id="grad2_1" x1="0%" y1="0%" x2="66.7%" y2="100%"><stop offset="20%" stop-color="#a4df99" stop-opacity="1"></stop><stop offset="80%" stop-color="#71ce67" stop-opacity="1"></stop></linearGradient></defs><defs><linearGradient id="grad2_2" x1="0%" y1="0%" x2="66.7%" y2="100%"><stop offset="20%" stop-color="#a4df99" stop-opacity="1"></stop><stop offset="80%" stop-color="#d3efcc" stop-opacity="1"></stop></linearGradient></defs><defs><linearGradient id="grad2_3" x1="0%" y1="0%" x2="66.7%" y2="100%"><stop offset="20%" stop-color="#ffffff" stop-opacity="1"></stop><stop offset="80%" stop-color="#d3efcc" stop-opacity="1"></stop></linearGradient></defs><g transform="translate(900, 0)"><path d="M0 262C-29.1 270.9 -58.1 279.8 -91.8 282.5C-125.4 285.1 -163.6 281.6 -190.7 262.5C-217.9 243.4 -234 208.8 -243.5 176.9C-253.1 145 -256.1 115.9 -267.2 86.8C-278.4 57.8 -297.7 28.9 -317 0L0 0Z" fill="#e9f7e5"></path><path d="M0 196.5C-21.8 203.2 -43.6 209.8 -68.8 211.8C-94.1 213.9 -122.7 211.2 -143.1 196.9C-163.4 182.6 -175.5 156.6 -182.6 132.7C-189.8 108.8 -192.1 86.9 -200.4 65.1C-208.8 43.4 -223.3 21.7 -237.7 0L0 0Z" fill="#bce7b2"></path><path d="M0 131C-14.5 135.4 -29.1 139.9 -45.9 141.2C-62.7 142.6 -81.8 140.8 -95.4 131.3C-108.9 121.7 -117 104.4 -121.8 88.5C-126.5 72.5 -128 57.9 -133.6 43.4C-139.2 28.9 -148.9 14.5 -158.5 0L0 0Z" fill="#8cd780"></path><path d="M0 65.5C-7.3 67.7 -14.5 69.9 -22.9 70.6C-31.4 71.3 -40.9 70.4 -47.7 65.6C-54.5 60.9 -58.5 52.2 -60.9 44.2C-63.3 36.3 -64 29 -66.8 21.7C-69.6 14.5 -74.4 7.2 -79.2 0L0 0Z" fill="#71ce67"></path></g><g transform="translate(0, 600)"><path d="M0 -295C35.1 -300.3 70.2 -305.5 94.3 -290.1C118.3 -274.6 131.2 -238.5 161.6 -222.5C192.1 -206.5 240.1 -210.7 262.5 -190.7C285 -170.8 281.9 -126.7 279.6 -90.9C277.3 -55 275.6 -27.5 274 0L0 0Z" fill="#e9f7e5"></path><path d="M0 -221.2C26.3 -225.2 52.7 -229.1 70.7 -217.6C88.7 -206 98.4 -178.8 121.2 -166.9C144.1 -154.9 180 -158 196.9 -143.1C213.7 -128.1 211.5 -95 209.7 -68.1C208 -41.3 206.7 -20.6 205.5 0L0 0Z" fill="#bce7b2"></path><path d="M0 -147.5C17.6 -150.1 35.1 -152.8 47.1 -145C59.1 -137.3 65.6 -119.2 80.8 -111.2C96 -103.2 120 -105.3 131.3 -95.4C142.5 -85.4 141 -63.3 139.8 -45.4C138.6 -27.5 137.8 -13.8 137 0L0 0Z" fill="#8cd780"></path><path d="M0 -73.7C8.8 -75.1 17.6 -76.4 23.6 -72.5C29.6 -68.7 32.8 -59.6 40.4 -55.6C48 -51.6 60 -52.7 65.6 -47.7C71.2 -42.7 70.5 -31.7 69.9 -22.7C69.3 -13.8 68.9 -6.9 68.5 0L0 0Z" fill="#71ce67"></path></g></svg>