<svg id="visual" viewBox="0 0 900 600" width="900" height="600" xmlns="http://www.w3.org/2000/svg" xmlns:xlink="http://www.w3.org/1999/xlink" version="1.1"><path d="M0 415L16.7 424.7C33.3 434.3 66.7 453.7 100 458.7C133.3 463.7 166.7 454.3 200 443.2C233.3 432 266.7 419 300 421C333.3 423 366.7 440 400 445.2C433.3 450.3 466.7 443.7 500 433.8C533.3 424 566.7 411 600 411C633.3 411 666.7 424 700 431C733.3 438 766.7 439 800 440.3C833.3 441.7 866.7 443.3 883.3 444.2L900 445L900 601L883.3 601C866.7 601 833.3 601 800 601C766.7 601 733.3 601 700 601C666.7 601 633.3 601 600 601C566.7 601 533.3 601 500 601C466.7 601 433.3 601 400 601C366.7 601 333.3 601 300 601C266.7 601 233.3 601 200 601C166.7 601 133.3 601 100 601C66.7 601 33.3 601 16.7 601L0 601Z" fill="#5a5a5a"></path><path d="M0 469L16.7 466.8C33.3 464.7 66.7 460.3 100 463.2C133.3 466 166.7 476 200 484C233.3 492 266.7 498 300 500.8C333.3 503.7 366.7 503.3 400 505.8C433.3 508.3 466.7 513.7 500 514.2C533.3 514.7 566.7 510.3 600 500.2C633.3 490 666.7 474 700 470.7C733.3 467.3 766.7 476.7 800 486.2C833.3 495.7 866.7 505.3 883.3 510.2L900 515L900 601L883.3 601C866.7 601 833.3 601 800 601C766.7 601 733.3 601 700 601C666.7 601 633.3 601 600 601C566.7 601 533.3 601 500 601C466.7 601 433.3 601 400 601C366.7 601 333.3 601 300 601C266.7 601 233.3 601 200 601C166.7 601 133.3 601 100 601C66.7 601 33.3 601 16.7 601L0 601Z" fill="#414141"></path><path d="M0 553L16.7 546.7C33.3 540.3 66.7 527.7 100 525C133.3 522.3 166.7 529.7 200 529.7C233.3 529.7 266.7 522.3 300 524C333.3 525.7 366.7 536.3 400 542.7C433.3 549 466.7 551 500 549.5C533.3 548 566.7 543 600 536.5C633.3 530 666.7 522 700 517.8C733.3 513.7 766.7 513.3 800 521.5C833.3 529.7 866.7 546.3 883.3 554.7L900 563L900 601L883.3 601C866.7 601 833.3 601 800 601C766.7 601 733.3 601 700 601C666.7 601 633.3 601 600 601C566.7 601 533.3 601 500 601C466.7 601 433.3 601 400 601C366.7 601 333.3 601 300 601C266.7 601 233.3 601 200 601C166.7 601 133.3 601 100 601C66.7 601 33.3 601 16.7 601L0 601Z" fill="#292929"></path></svg>