<svg id="visual" viewBox="0 0 900 600" width="900" height="600" xmlns="http://www.w3.org/2000/svg" xmlns:xlink="http://www.w3.org/1999/xlink" version="1.1"><path d="M0 140L21.5 131.3C43 122.7 86 105.3 128.8 104.2C171.7 103 214.3 118 257.2 125C300 132 343 131 385.8 123C428.7 115 471.3 100 514.2 97.7C557 95.3 600 105.7 642.8 104.5C685.7 103.3 728.3 90.7 771.2 93.7C814 96.7 857 115.3 878.5 124.7L900 134L900 0L878.5 0C857 0 814 0 771.2 0C728.3 0 685.7 0 642.8 0C600 0 557 0 514.2 0C471.3 0 428.7 0 385.8 0C343 0 300 0 257.2 0C214.3 0 171.7 0 128.8 0C86 0 43 0 21.5 0L0 0Z" fill="#ffffff"></path><path d="M0 95L21.5 94C43 93 86 91 128.8 91.7C171.7 92.3 214.3 95.7 257.2 91C300 86.3 343 73.7 385.8 70.3C428.7 67 471.3 73 514.2 72.3C557 71.7 600 64.3 642.8 63.8C685.7 63.3 728.3 69.7 771.2 75.2C814 80.7 857 85.3 878.5 87.7L900 90L900 0L878.5 0C857 0 814 0 771.2 0C728.3 0 685.7 0 642.8 0C600 0 557 0 514.2 0C471.3 0 428.7 0 385.8 0C343 0 300 0 257.2 0C214.3 0 171.7 0 128.8 0C86 0 43 0 21.5 0L0 0Z" fill="#8c8c8c"></path><path d="M0 22L21.5 22.2C43 22.3 86 22.7 128.8 23C171.7 23.3 214.3 23.7 257.2 28.7C300 33.7 343 43.3 385.8 47.8C428.7 52.3 471.3 51.7 514.2 53.3C557 55 600 59 642.8 55.8C685.7 52.7 728.3 42.3 771.2 37.8C814 33.3 857 34.7 878.5 35.3L900 36L900 0L878.5 0C857 0 814 0 771.2 0C728.3 0 685.7 0 642.8 0C600 0 557 0 514.2 0C471.3 0 428.7 0 385.8 0C343 0 300 0 257.2 0C214.3 0 171.7 0 128.8 0C86 0 43 0 21.5 0L0 0Z" fill="#292929"></path></svg>